<svg width="171.000000" height="20.000000" viewBox="0 0 171 20" fill="none" xmlns="http://www.w3.org/2000/svg" xmlns:xlink="http://www.w3.org/1999/xlink">
	<desc>
			Created with Pixso.
	</desc>
	<defs/>
	<path id="Vector" d="M5.2 19.61L0 0.32L3.44 0.32L7.45 15.13L11.75 0.32L14.94 0.32L19.24 15.2L23.25 0.32L26.66 0.32L21.45 19.61L17.48 19.61L13.29 5.22L9.14 19.61L5.2 19.61Z" fill="#004D41" fill-opacity="0.400000" fill-rule="nonzero"/>
	<path id="Vector" d="M29.05 0.32L32.32 0.32L32.32 19.61L29.05 19.61L29.05 0.32Z" fill="#004D41" fill-opacity="0.400000" fill-rule="nonzero"/>
	<path id="Vector" d="M39.25 16.57L47.17 16.57L47.17 19.61L36.05 19.61L36.05 0.35L39.25 0.35L39.25 16.57Z" fill="#004D41" fill-opacity="0.400000" fill-rule="nonzero"/>
	<path id="Vector" d="M57.23 0.35C59.72 0.28 62.15 1.3 63.87 3.14C67.43 6.98 67.43 12.98 63.87 16.82C62.15 18.65 59.72 19.68 57.23 19.61L49.56 19.61L49.56 0.35L57.23 0.35ZM57.23 16.57C59.05 16.57 60.57 15.94 61.69 14.71C62.89 13.44 63.52 11.71 63.45 9.98C63.52 8.22 62.89 6.52 61.69 5.25C60.53 4.02 58.91 3.31 57.23 3.39L52.76 3.39L52.76 16.57L57.23 16.57Z" fill="#004D41" fill-opacity="0.400000" fill-rule="nonzero"/>
	<path id="Vector" d="M83.71 14.11C83.75 15.59 83.11 17.03 82.02 18.02C80.9 19.08 79.42 19.64 77.87 19.61L69.53 19.61L69.53 0.35L77.27 0.35C78.75 0.32 80.19 0.88 81.32 1.87C82.41 2.82 83.01 4.23 82.97 5.68C83.04 7.23 82.27 8.71 81 9.59C82.69 10.44 83.75 12.2 83.71 14.11ZM72.73 3.31L72.73 8.39L77.27 8.39C78.68 8.39 79.8 7.26 79.8 5.85C79.8 4.44 78.68 3.31 77.27 3.31L72.73 3.31ZM77.87 16.61C79.35 16.54 80.51 15.3 80.44 13.82C80.41 12.41 79.24 11.28 77.87 11.25L72.73 11.25L72.73 16.64L77.87 16.61Z" fill="#004D41" fill-opacity="0.400000" fill-rule="nonzero"/>
	<path id="Vector" d="M89.98 16.57L98.6 16.57L98.6 19.61L86.78 19.61L86.78 0.35L98.46 0.35L98.46 3.39L89.98 3.39L89.98 8.39L97.79 8.39L97.79 11.39L89.98 11.39L89.98 16.57Z" fill="#004D41" fill-opacity="0.400000" fill-rule="nonzero"/>
	<path id="Vector" d="M112.56 19.61L108.41 12.59L104.64 12.59L104.64 19.61L101.44 19.61L101.44 0.32L109.25 0.32C110.9 0.28 112.52 0.95 113.68 2.15C114.88 3.28 115.55 4.87 115.51 6.52C115.48 8.99 113.96 11.21 111.64 12.1L116.07 19.61L112.56 19.61ZM104.64 3.31L104.64 9.77L109.21 9.77C110.97 9.7 112.35 8.18 112.28 6.38C112.21 4.73 110.87 3.39 109.21 3.31L104.64 3.31Z" fill="#004D41" fill-opacity="0.400000" fill-rule="nonzero"/>
	<path id="Vector" d="M129.62 19.61L125.5 12.59L121.73 12.59L121.73 19.61L118.53 19.61L118.53 0.32L126.34 0.32C128 0.28 129.62 0.95 130.78 2.15C131.97 3.28 132.64 4.87 132.6 6.52C132.57 8.99 131.06 11.21 128.73 12.1L133.17 19.61L129.62 19.61ZM121.73 3.31L121.73 9.77L126.31 9.77C128.1 9.66 129.44 8.15 129.34 6.35C129.23 4.73 127.93 3.39 126.31 3.31L121.73 3.31Z" fill="#004D41" fill-opacity="0.400000" fill-rule="nonzero"/>
	<path id="Vector" d="M135.49 0.32L138.69 0.32L138.69 19.61L135.49 19.61L135.49 0.32Z" fill="#004D41" fill-opacity="0.400000" fill-rule="nonzero"/>
	<path id="Vector" d="M145.66 16.57L154.28 16.57L154.28 19.61L142.46 19.61L142.46 0.35L154.14 0.35L154.14 3.39L145.66 3.39L145.66 8.39L153.47 8.39L153.47 11.39L145.66 11.39L145.66 16.57Z" fill="#004D41" fill-opacity="0.400000" fill-rule="nonzero"/>
	<path id="Vector" d="M156.53 15.23L159.3 13.65C160.08 15.83 161.7 16.89 164.12 16.89C166.55 16.89 167.75 15.87 167.75 14.35C167.78 13.65 167.4 12.94 166.76 12.59C166.13 12.17 164.97 11.71 163.32 11.21C161.45 10.65 160.54 10.3 159.23 9.45C157.93 8.6 157.34 7.3 157.34 5.57C157.27 4.02 157.97 2.5 159.16 1.52C160.4 0.49 161.98 -0.04 163.6 0C166.52 -0.11 169.19 1.59 170.39 4.23L167.71 5.75C166.9 3.98 165.53 3.07 163.63 3.07C161.73 3.07 160.57 3.98 160.57 5.47C160.57 6.95 161.52 7.55 164.51 8.46C165.25 8.71 165.78 8.89 166.13 9.03C166.48 9.17 166.97 9.34 167.57 9.59C168.07 9.77 168.56 10.05 168.98 10.37C170 11.18 171.12 12.48 170.98 14.32C171.05 15.94 170.35 17.46 169.09 18.48C167.82 19.5 166.16 20 164.09 20C160.26 19.96 157.51 18.16 156.53 15.23Z" fill="#004D41" fill-opacity="0.400000" fill-rule="nonzero"/>
</svg>
